<?xml version="1.0" encoding="UTF-8"?>
<svg id="Layer_2" data-name="Layer 2" xmlns="http://www.w3.org/2000/svg" viewBox="0 0 519.79 87.92">
  <g id="Layer_1-2" data-name="Layer 1">
    <g>
      <g>
        <path d="M126.79.55c2.36,2.08-4,2.19-4,3.5v14.5c2.49-2.23,15.58-12.92,12.98-15.98-.45-.53-3.96,1.23-2.98-2.02h14.5c.22,0,1.83,1.73,1.5,1.99-8.44-.27-14.5,7.31-18.86,13.34.11,1.26,13.79,19.23,15.17,20.36,1.72,1.4,4.99,1.31,5.69,3.31-3.5-.45-8.84.93-11.98-.5-2.09-.95-11.06-14.22-13.73-17.21-.59-.67.08-1.91-2.29-1.28v16.5c0,.95,2.94,1.65,3.99,1.51v.99s-14.99,0-14.99,0v-.99c1.06.14,4-.56,4-1.51V2.55c0-.2-3.32.16-4.01,0V.55c2.25.39,14.41-.53,15.01,0Z"/>
        <path d="M40.79,22.55c.82,3.38-3.02,1.11-3.88,3.62-.95,2.81.91,9.33-.57,11.44s-15.08,3.26-18.06,2.94C-7.89,37.75-6.89-2.36,27.33.5c9.08.76,9.16,2.17,8.45,11.04-3.25.4-1.64-3.51-3.5-5.99-2.69-3.59-10.5-3.55-14.56-2.57C2.21,6.71,5.41,42.9,26.07,38.32c4.68-1.04,4.8-8.55,3.59-12.14-1.02-3.02-5.64.12-4.87-3.64h16Z"/>
        <path d="M104.29.55c2.36.73,1.34,6.86,1.49,8.99-3.66.83-1.49-4.13-4.21-5.33-3.49-1.54-8.98-.26-12.79-.66v15c2.53-.37,9.24.97,10.56-.95.93-1.35-.59-5.7,2.44-3.54l-.02,12.5c-2.66-.49-1.19-4.24-2.65-5.05-1.66-.93-10.34-1.8-10.34.55v15.5c4.2-.37,12.27,1.4,15.06-2.44,1.31-1.81.5-4.77,2.93-5.56v10s-28.99,0-28.99,0c.03-1.76,2.64-1.23,3.52-2.98s.97-31.72.04-33.1c-1.01-1.49-4.47.25-3.56-2.92,6.61,1.27,20.95-1.71,26.5,0Z"/>
        <path d="M42.79,39.55c.96-2.6,4.68-.16,5.07-3.46.41-3.52.41-31.26-.51-32.61-.45-.67-5.82-1.08-3.55-2.92.29-.24,5.78,1.05,7.46,1.06,4.07.02,19.18-3.11,20.39.57.67,2.04.74,7.66-1.85,8.36.69-10.12-8.09-6.43-15.01-7v15c2.53-.37,9.24.97,10.56-.95.93-1.35-.59-5.7,2.44-3.54l-.02,12.5c-2.85-.74-.84-4.26-3.19-5.33-1.92-.87-9.8-1.37-9.8.83v15.5c3.8-.5,11.25,1.08,14.34-.91,1.21-.78,4.28-13.16,4.01-3.33-.03.95-.04,6.24-.35,6.24h-30Z"/>
        <path d="M174.59,1.77c.79.64,1.75,8.8-.3,8.76-1.16-.03-2.1-5.13-3.44-6.53-4.07-4.24-12.66-2.02-12.15,5.06.63,8.82,18.74,7.83,18.93,19.97.16,10.46-9.8,12.49-18.25,11.44-8.97-1.12-6.42-4.2-6.58-11.91,3.03-.55,1.54.89,2.09,2.35,1.63,4.34,1.93,6.87,7.49,7.6,4.76.62,9.6-1.05,9.49-6.47-.19-9.26-26.1-11.08-16.93-26.85,3-5.15,15.95-6.4,19.66-3.41Z"/>
        <path d="M314.79,37.55c.22,1.76-2.26.95-3.49,1-31.72,1.32-65.13-.06-97.05-.05-2.21,0-4.18.86-5.96.85-4.35-.02-9.78-1.62-14.5-.81l1.01-7.99c2.18-.07.42,4.44.99,5,.26.26,4.95-.23,6.45.05,2.16.4,3.68,1.97,6.03,2,3.27.04,8.5-3.06,12.59-2.48l1.43-4.58c1.29,0,.33,5.93-.5,7.01h93Z"/>
        <path d="M219.79,26.54c-.23,1.47.35,7.67,0,8.01-.39.39-9.02-.16-11,.99-1.39-6.93,5.33-8.8,10.99-9Z"/>
        <path d="M207.78,35.54c-7.49-1.58-12.63,1.21-10.99-9,5.66.2,12.38,2.07,10.99,9Z"/>
      </g>
      <rect x="58.79" y="69.55" width="58" height="1"/>
      <g>
        <path d="M301.79,84.05c.34,1.06,3.81,1.8,4,3.49h-10c.84-2.18,3.48-1.68,4.01-4.48.79-4.16-.08-12.28-.05-17.05,0-1.63,1.03-3.81.83-4.85-.42-2.25-3.65-1.74-3.78-3.6,2.11.41,7.44-.72,8.84.15,1.01.63,8.59,18.99,9.17,21.84,4.79-3.11,7.46-21.06,12.48-22,1.98-.37,4.43.2,6.5.01-.2,1.93-2.46.58-3.02,3.46-.66,3.37-.5,19.24-.05,23.06.28,2.42,2.58,1.51,3.08,3.46h-11c-.1-1.67,3-1.81,3-1.99v-23l-11.01,25c-2,1.52-10.2-23.28-12.99-24,1,5.12-1.36,16.26,0,20.5Z"/>
        <path d="M145.29,57.55c6.59,1.12,7.66,9.9,1.5,12.5,5.57,3.12,9.9,8.77,4.45,14.46-.75.78-5.31,3.04-5.96,3.04h-14.5c-1.63-2.49,2-1.8,2-2v-27c0-.2-3.64.74-3-1,4.75.56,10.99-.77,15.5,0ZM138.8,70.54c7.91.69,9.55-10.93,1.49-12.01-2.05-.27-1.31.15-1.5,1.49-.45,3.21.32,7.19,0,10.52ZM146.55,73.78c-1.53-1.53-5.66-1.22-7.77-1.24v13.01c8.22,3.36,12.12-7.41,7.77-11.77Z"/>
        <path d="M507.29,57.55c8.54,1.51,8.92,12.69.5,14.5,6.36,3.54,5.84,11.45,12,15.49-2.42-.06-6.94.5-8.75-1.25-2.31-2.22-4.32-16.51-10.31-12.31-1.83,1.28.11,11.67,2.06,13.55h-11c-.1-1.67,3-1.81,3-1.99v-25.5c0-.94-3.59-1.14-3-2.5,4.72.58,11.03-.79,15.5,0ZM501.4,58.6c-3.08.9-.7,5.49-.55,7.51.19,2.58-2.6,5.76,2.36,5.43,9.22-.61,4.73-14.85-1.81-12.94Z"/>
        <path d="M231.79,60.05c-.41-1.19-3.25-.9-2.99-2.49h11.99c.11,2.13-2.5-.25-3.29,2.23-.21.66-.73,7.22-.74,8.24,0,1.5-.65,2.93,1.52,2.51,2.37-3.11,9.46-7.2,8.57-11.4-.23-1.1-2.5.08-2.06-1.58h11.99s-7.49,4-7.49,4c-1.36,1.84-6.55,5.34-6.54,7.5,0,.97,10.17,14.05,11.59,15.48,1.23,1.24,3.09.63,3.46,1.53,1.08,2.65-6.82,1.51-7.99.98-2.68-1.21-9.5-14.44-11.51-14.47-2.44-.03-2.47,13.27,1.5,14.97h-10.99c-.57-2.76,1.01-1.99,2.99-1.99-1.24-6.04,1.66-20.64,0-25.5Z"/>
        <path d="M173.45,56.92c23.47-.49,20.09,34.44-4.1,30.56-17.27-2.77-15.61-30.15,4.1-30.56ZM168.08,84.24c3.51,2.77,10.47,1.97,13.16-1.75,6.68-9.22-.67-29.14-12.83-22.82-7.11,3.7-5.9,20.17-.33,24.56Z"/>
        <path d="M197.13,61.88c6.73-6.76,21.74-6.73,26.22,2.61,6.56,13.69-5.5,25.93-19.63,22.62-10.78-2.53-14.14-17.64-6.59-25.23ZM202.1,60.86c-8.28,7.71-.23,31.43,12.41,23.92s.02-35.49-12.41-23.92Z"/>
        <path d="M393.79,77.55v-16.5c0-1.37-4.01-1.87-3.99-3.49h8.99c.34,1.52-2.99,1.53-2.99,2.49v26c0,3.06-3.25-.21-4.03-.97-6.24-6.13-11.18-15.64-17.97-21.53v20.5c0,.75,3.94,1.95,4,3.49h-8.99c-1.02-3.29,2.73-1.15,3.06-2.53.36-1.48.34-23.25-.02-24.79-.38-1.64-4.14-.65-4.04-2.65l8.99.49c4.89,5.19,9.25,12.98,14.19,17.81.88.86.82,2.19,2.81,1.69Z"/>
        <path d="M459.78,65.54c-3.62-.2-2.25-4.51-6.24-6.24-19.95-8.6-22.03,34.34,1.31,25.66-.54-2.59.55-6.63,0-8.88-.33-1.39-4.09.75-3.06-2.54,1.86.34,10.42-.49,10.99,0,1.92,1.64-1.87,2.04-2.01,2.64-1.68,7.43,4.24,10.33-8.49,11.34-7.55.6-16.11-.97-19.23-8.75-6.07-15.16,11.26-26.6,24.49-20.49,3.16,1.46,2.22,4.25,2.24,7.25Z"/>
        <path d="M486.79,57.55v7c-2.44-.55-1.47-4.13-3.63-4.87-.93-.32-9.04-.47-9.38-.13-.4.4.3,9.22,0,11.01,1.58-.26,8.67.35,9.01,0,.52-.54-1.11-4.23.98-4-1.03,3.25,2.24,8.7-.98,9.99,1.55-4.08-5.99-5.02-8.08-3.56-1.97,1.38-.49,9.89-.94,12.57,3.99-.36,9.38,1.5,12.06-2.46.94-1.38.31-3.65,1.94-3.54v7.99s-21.99,0-21.99,0c.49-1.96,2.8-1.04,3.08-3.47.44-3.82.6-19.69-.05-23.06-.56-2.88-2.83-1.53-3.03-3.47h21Z"/>
        <path d="M352.77,56.55c4.19,7.6,6.61,19.68,10.78,26.75,1.4,2.37,3.7,1.51,3.23,4.25h-10.99s3.01-2.51,3.01-2.51c-1.5-2.13-2.34-8.12-3.5-9.5-1.37-1.65-8.54-1.54-10.04-.01-.55.56-3.32,8.12-3.25,8.57.2,1.29,3.6,1.7,3.78,3.45h-10c8.41-6.85,9.29-21.02,14.75-29.71.64-1.02-.05-1.75,2.24-1.27ZM353.79,72.54l-3.98-8.99-3.01,8.99h6.99Z"/>
        <path d="M430.78,85.57c2.73,3.15-9.23,1.72-10.99,1.97-.05-1.62,3.01-1.59,3.07-2.56.03-.55-3.76-9.97-4.23-10.26-1.16-.71-8.24-.5-9.34.83-.68.82-2.48,6.26-2.57,7.56-.25,3.44,1.79,2.03,3.08,4.43h-10c9.35-7.35,8.86-22.18,16.5-30.97,1.71,0,9.56,24.56,11.61,27.41,1.04,1.45,2.74,1.42,2.89,1.59ZM417.79,72.54l-3.98-8.99-3.01,8.99h6.99Z"/>
        <path d="M277.65,58.68c.69,1.09-.14,4.3.13,5.86-3.33.71-1.66-3.18-3.23-4.77-2.51-2.53-9.89-1.98-9.87,3.27.03,7.45,19.41,7.59,13.58,20.48-2.88,6.37-22.86,6.7-18.48-4.98,3.11-.36,1.95,3.27,3.97,5.53,3.26,3.63,10.86,3.57,11.13-2.03.39-7.84-10.11-7.05-12.99-12.11-3.53-6.22.78-12.9,7.51-13.35,1.49-.1,7.79,1.39,8.24,2.1Z"/>
      </g>
    </g>
  </g>
</svg>